# xmcd
#
# Track frame offsets: 
#        150
#        20924
#        36160
#        50822
#        63437
#        77825
#        88312
#        106872
#        113741
#        130292
#        145278
#        166473
#        175222
#        188868
#        198025
#        208112
#        222151
#        238448
#        247546
#        260367
#        271917
#        280957
#        291671
#        304386
#
# Disc length: 4251 seconds
#
# Revision: 2
# Processed by: cddbd v1.5.2PL0 Copyright (c) Steve Scherf et al.
# Submitted via: ExactAudioCopyFreeDBPlugin 1.0
#
DISCID=78109918
DTITLE=Ray Charles - Fifteen Classic Albums Plus Bonus Singles [Real G
DTITLE=one Music]
DYEAR=2012
DGENRE=Rhythm and Blues
TTITLE0=Ev'ry Time We Say Goodbye
TTITLE1=You and I
TTITLE2=Intro:  Goodbye - We'll Be Together Again
TTITLE3=People Will Say We're in Love
TTITLE4=Cocktails for Two
TTITLE5=Side by Side
TTITLE6=Baby, It's Cold Outside
TTITLE7=Together
TTITLE8=For All We Know
TTITLE9=Takes Two to Tango
TTITLE10=Alone Together
TTITLE11=Just You, Just Me
TTITLE12=My Baby! (I Love Her, Yes I Do)
TTITLE13=Who You Gonna Love
TTITLE14=Sticks and Stones
TTITLE15=Worried Life Blues
TTITLE16=Georgia on My Mind
TTITLE17=Carry Me Back to Old Virginny
TTITLE18=Them That Got
TTITLE19=I Wonder
TTITLE20=Hit the Road Jack
TTITLE21=The Danger Zone
TTITLE22=Unchain My Heart
TTITLE23=But on the Other Hand Baby
EXTD=
EXTT0=
EXTT1=
EXTT2=
EXTT3=
EXTT4=
EXTT5=
EXTT6=
EXTT7=
EXTT8=
EXTT9=
EXTT10=
EXTT11=
EXTT12=
EXTT13=
EXTT14=
EXTT15=
EXTT16=
EXTT17=
EXTT18=
EXTT19=
EXTT20=
EXTT21=
EXTT22=
EXTT23=
PLAYORDER=
